<?xml version="1.0" encoding="utf-8"?>
<!-- Generator: Adobe Illustrator 27.1.1, SVG Export Plug-In . SVG Version: 6.00 Build 0)  -->
<svg version="1.1" id="visual" xmlns="http://www.w3.org/2000/svg" xmlns:xlink="http://www.w3.org/1999/xlink" x="0px" y="0px"
	 viewBox="0 0 960 540" style="enable-background:new 0 0 960 540;" xml:space="preserve">
<style type="text/css">
	.st0{opacity:0.3;}
	.st1{fill:#E0E0E0;stroke:#656565;stroke-linejoin:bevel;}
	.st2{fill:#F2F2F2;stroke:#656565;stroke-linejoin:bevel;}
	.st3{fill:#F9F9F9;stroke:#656565;stroke-linejoin:bevel;}
	.st4{fill:#E3E3E3;stroke:#656565;stroke-linejoin:bevel;}
	.st5{fill:#F5F5F5;stroke:#656565;stroke-linejoin:bevel;}
	.st6{fill:#E6E6E6;stroke:#656565;stroke-linejoin:bevel;}
	.st7{fill:#EFEFEF;stroke:#656565;stroke-linejoin:bevel;}
	.st8{fill:#FFFFFF;stroke:#656565;stroke-linejoin:bevel;}
	.st9{fill:#FCFCFC;stroke:#656565;stroke-linejoin:bevel;}
	.st10{fill:#ECECEC;stroke:#656565;stroke-linejoin:bevel;}
	.st11{fill:#E9E9E9;stroke:#656565;stroke-linejoin:bevel;}
</style>
<g class="st0">
	<path class="st1" d="M436,286.4l-8-17.8l-45,11.8L436,286.4z"/>
	<path class="st2" d="M383,280.4l-4,55.2l57-49.2L383,280.4z"/>
	<path class="st3" d="M508,320.6l-79-102.3l-1,50.3L508,320.6z"/>
	<path class="st4" d="M428,268.6l1-50.3l-46,62.1L428,268.6z"/>
	<path class="st5" d="M429,218.3l-56-23l10,85.1L429,218.3z"/>
	<path class="st2" d="M290,307.4l74,74.5l15-46.3L290,307.4z"/>
	<path class="st6" d="M379,335.6l95,30.1l-38-79.3L379,335.6z"/>
	<path class="st7" d="M436,286.4l72,34.2l-80-52L436,286.4z"/>
	<path class="st3" d="M290,307.4l89,28.2l4-55.2L290,307.4z"/>
	<path class="st7" d="M379,335.6l-15,46.3l110-16.2L379,335.6z"/>
	<path class="st4" d="M474,365.7l34-45.1l-72-34.2L474,365.7z"/>
	<path class="st6" d="M276,205.4l14,102l93-27L276,205.4z"/>
	<path class="st2" d="M373,195.3l-97,10.1l107,75L373,195.3z"/>
	<path class="st8" d="M508,320.6V157.1l-79,61.2L508,320.6z"/>
	<path class="st9" d="M429,218.3l42-134.2l-98,111.2L429,218.3z"/>
	<path class="st7" d="M287,117.1l-40,57.2l29,31.1L287,117.1z"/>
	<path class="st8" d="M290,307.4l18,110.3l56-35.8L290,307.4z"/>
	<path class="st9" d="M411,540l114-91.3l-51-83L411,540z"/>
	<path class="st5" d="M596,361.6l-16-64.2l-72,23.2L596,361.6z"/>
	<path class="st2" d="M508,320.6l72-23.2l-72-140.3V320.6z"/>
	<path class="st1" d="M287,117.1l-11,88.3l97-10.1L287,117.1z"/>
	<path class="st9" d="M276,205.4l-70,33.2l84,68.8L276,205.4z"/>
	<path class="st2" d="M290,307.4l-56,88.3l74,22L290,307.4z"/>
	<path class="st5" d="M411,540l63-174.3l-110,16.2L411,540z"/>
	<path class="st6" d="M474,365.7l122-4.1l-88-41L474,365.7z"/>
	<path class="st8" d="M591,409.9l5-48.3l-122,4.1L591,409.9z"/>
	<path class="st7" d="M195,308.7l39,87l56-88.3L195,308.7z"/>
	<path class="st8" d="M247,174.3l-41,64.3l70-33.2L247,174.3z"/>
	<path class="st2" d="M471,84.1l-184,33l86,78.2L471,84.1z"/>
	<path class="st1" d="M520,104.3l-49-20.2l37,73L520,104.3z"/>
	<path class="st2" d="M508,157.1l-37-73l-42,134.2L508,157.1z"/>
	<path class="st3" d="M587,154.4l-67-50.1l-12,52.8L587,154.4z"/>
	<path class="st4" d="M206,238.6l-11,70.1l95-1.3L206,238.6z"/>
	<path class="st1" d="M606,387.7l5-16l-15-10.1L606,387.7z"/>
	<path class="st9" d="M596,361.6l31-38l-47-26.2L596,361.6z"/>
	<path class="st2" d="M580,297.4l7-143l-79,2.7L580,297.4z"/>
	<path class="st9" d="M525,448.7l66-38.8l-117-44.2L525,448.7z"/>
	<path class="st2" d="M591,409.9l15-22.2l-10-26.1L591,409.9z"/>
	<path class="st1" d="M654,385.6l-27-62l-16,48.1L654,385.6z"/>
	<path class="st2" d="M611,371.7l16-48.1l-31,38L611,371.7z"/>
	<path class="st4" d="M637,173.3l-50-18.9l-7,143L637,173.3z"/>
	<path class="st5" d="M286,540l42-44.1l-20-78.2L286,540z"/>
	<path class="st2" d="M308,417.7l20,78.2l36-114L308,417.7z"/>
	<path class="st9" d="M139,386.7l39-14.1l17-63.9L139,386.7z"/>
	<path class="st10" d="M195,308.7l-17,63.9l56,23.1L195,308.7z"/>
	<path class="st2" d="M211,529.9l75,10.1l22-122.3L211,529.9z"/>
	<path class="st3" d="M395,540h16l-47-158.1L395,540z"/>
	<path class="st7" d="M525,448.7l110,71.2l-44-110L525,448.7z"/>
	<path class="st3" d="M328,495.9l67,44.1l-31-158.1L328,495.9z"/>
	<path class="st8" d="M627,323.6l10-150.3l-57,124.1L627,323.6z"/>
	<path class="st11" d="M533,5.1l-62,79l49,20.2L533,5.1z"/>
	<path class="st10" d="M411,540l80-6.1l34-85.2L411,540z"/>
	<path class="st10" d="M591,409.9l63-24.3l-48,2.1L591,409.9z"/>
	<path class="st5" d="M606,387.7l48-2.1l-43-13.9L606,387.7z"/>
	<path class="st2" d="M777,156.4l-95-11.3l104,30.3L777,156.4z"/>
	<path class="st6" d="M697,449.9l-43-64.3l-63,24.3L697,449.9z"/>
	<path class="st4" d="M211,529.9l97-112.2l-74-22L211,529.9z"/>
	<path class="st8" d="M328,495.9L286,540h109L328,495.9z"/>
	<path class="st5" d="M203,51.1l-10,52l94,14L203,51.1z"/>
	<path class="st2" d="M287,117.1l-94-14l54,71.2L287,117.1z"/>
	<path class="st5" d="M247,174.3l-89-39l48,103.3L247,174.3z"/>
	<path class="st2" d="M109,222.4l30,164.3l56-78L109,222.4z"/>
	<path class="st7" d="M109,222.4l86,86.3l11-70.1L109,222.4z"/>
	<path class="st3" d="M178,372.6l-48,117.3l104-94.2L178,372.6z"/>
	<path class="st6" d="M475,0h-27l23,84.1L475,0z"/>
	<path class="st9" d="M471,84.1L448,0L287,117.1L471,84.1z"/>
	<path class="st3" d="M475,0l-4,84.1l62-79L475,0z"/>
	<path class="st1" d="M193,103.1l-35,32.2l89,39L193,103.1z"/>
	<path class="st7" d="M635,73.3l-115,31l67,50.1L635,73.3z"/>
	<path class="st3" d="M682,145.1l-40-42.8l-5,71L682,145.1z"/>
	<path class="st4" d="M637,173.3l5-71l-55,52.1L637,173.3z"/>
	<path class="st6" d="M158,135.3l-37,52.1l85,51.2L158,135.3z"/>
	<path class="st9" d="M121,187.4l-12,35l97,16.2L121,187.4z"/>
	<path class="st5" d="M682,145.1l-45,28.2l149,2.1L682,145.1z"/>
	<path class="st5" d="M564,0l-31,5.1l-13,99.2L564,0z"/>
	<path class="st2" d="M640,44.1l-5,29.2L708,0L640,44.1z"/>
	<path class="st2" d="M642,102.3l-7-29l-48,81.1L642,102.3z"/>
	<path class="st1" d="M158,522.9l53,7l-81-40L158,522.9z"/>
	<path class="st2" d="M193,103.1l-49-25l14,57.2L193,103.1z"/>
	<path class="st4" d="M158,135.3l-54,28l17,24.1L158,135.3z"/>
	<path class="st7" d="M270,0l-67,51.1l84,66L270,0z"/>
	<path class="st7" d="M411,540h194l-114-6.1L411,540z"/>
	<path class="st7" d="M491,533.9l114,6.1l-80-91.3L491,533.9z"/>
	<path class="st2" d="M448,0H270l17,117.1L448,0z"/>
	<path class="st7" d="M605,540l30-20.1l-110-71.2L605,540z"/>
	<path class="st8" d="M195,540h7l9-10.1L195,540z"/>
	<path class="st9" d="M211,529.9l-9,10.1h84L211,529.9z"/>
	<path class="st8" d="M635,73.3L564,0l-44,104.3L635,73.3z"/>
	<path class="st5" d="M533,5.1L564,0h-89L533,5.1z"/>
	<path class="st1" d="M144,78.1l-40,85.2l54-28L144,78.1z"/>
	<path class="st11" d="M121,187.4l-17-24.1l5,59.1L121,187.4z"/>
	<path class="st3" d="M635,519.9l62-70l-106-40L635,519.9z"/>
	<path class="st6" d="M654,385.6l87-7.9l-114-54.1L654,385.6z"/>
	<path class="st3" d="M158,522.9l37,17.1l16-10.1L158,522.9z"/>
	<path class="st3" d="M683,0l-43,44.1L708,0H683z"/>
	<path class="st2" d="M635,73.3l5-29.2L564,0L635,73.3z"/>
	<path class="st10" d="M167,0l-23,78.1l59-27L167,0z"/>
	<path class="st7" d="M203,51.1l-59,27l49,25L203,51.1z"/>
	<path class="st9" d="M130,489.9l81,40l23-134.2L130,489.9z"/>
	<path class="st4" d="M130,489.9l48-117.3l-39,14.1L130,489.9z"/>
	<path class="st10" d="M697,449.9l44-72.2l-87,7.9L697,449.9z"/>
	<path class="st1" d="M0,395.7l130,94.2l9-103.2L0,395.7z"/>
	<path class="st5" d="M2,268.6l137,118.1l-30-164.3L2,268.6z"/>
	<path class="st10" d="M635,519.9l94,20.1l-32-90.1L635,519.9z"/>
	<path class="st5" d="M697,449.9l106-28l-62-44.2L697,449.9z"/>
	<path class="st11" d="M605,540h39l-9-20.1L605,540z"/>
	<path class="st6" d="M270,0h-98l31,51.1L270,0z"/>
	<path class="st5" d="M0,268.6h2l-2-34.3V268.6z"/>
	<path class="st4" d="M172,0h-5l36,51.1L172,0z"/>
	<path class="st11" d="M786,175.4l-149-2.1l174,88.3L786,175.4z"/>
	<path class="st1" d="M708,0l-73,73.3l7,29L708,0z"/>
	<path class="st11" d="M811,261.6l-174-88.3l-10,150.3L811,261.6z"/>
	<path class="st9" d="M708,0l-66,102.3l40,42.8L708,0z"/>
	<path class="st6" d="M640,44.1L683,0H564L640,44.1z"/>
	<path class="st9" d="M814,336.7l-3-75.1l-70,116.1L814,336.7z"/>
	<path class="st6" d="M741,377.7l70-116.1l-184,62L741,377.7z"/>
	<path class="st3" d="M644,540h85l-94-20.1L644,540z"/>
	<path class="st5" d="M109,222.4l-5-59.1l-104,71L109,222.4z"/>
	<path class="st3" d="M0,234.3l2,34.3l107-46.2L0,234.3z"/>
	<path class="st11" d="M803,421.9l11-85.2l-73,41L803,421.9z"/>
	<path class="st6" d="M0,234.3l104-71L0,159.4V234.3z"/>
	<path class="st9" d="M2,268.6L0,394.9l139-8.2L2,268.6z"/>
	<path class="st5" d="M0,159.4l104,3.9L0,140.1V159.4z"/>
	<path class="st2" d="M723,0l-41,145.1l114-72L723,0z"/>
	<path class="st11" d="M723,0h-15l-26,145.1L723,0z"/>
	<path class="st8" d="M729,540h11l-43-90.1L729,540z"/>
	<path class="st2" d="M799,494.9l4-73l-106,28L799,494.9z"/>
	<path class="st9" d="M0,268.6v126.3l2-126.3H0z"/>
	<path class="st1" d="M130,489.9L26,540l132-17.1L130,489.9z"/>
	<path class="st5" d="M0,394.9v0.8l139-9L0,394.9z"/>
	<path class="st4" d="M796,73.1l-114,72l95,11.3L796,73.1z"/>
	<path class="st11" d="M0,140.1l104,23.2l40-85.2L0,140.1z"/>
	<path class="st9" d="M167,0H91l53,78.1L167,0z"/>
	<path class="st9" d="M91,0L0,140.1l144-62L91,0z"/>
	<path class="st1" d="M740,540l59-45.1l-102-45L740,540z"/>
	<path class="st1" d="M871,240.4l-60,21.2l3,75.1L871,240.4z"/>
	<path class="st11" d="M872,184.3l-95-27.9l9,19L872,184.3z"/>
	<path class="st9" d="M872,184.3L796,73.1l-19,83.3L872,184.3z"/>
	<path class="st3" d="M871,240.4l-17-28.1l-43,49.3L871,240.4z"/>
	<path class="st8" d="M811,261.6l43-49.3l-68-36.9L811,261.6z"/>
	<path class="st11" d="M840,432.7l-26-96l-11,85.2L840,432.7z"/>
	<path class="st11" d="M799,494.9l41-62.2l-37-10.8L799,494.9z"/>
	<path class="st11" d="M0,395.7L26,540l104-50.1L0,395.7z"/>
	<path class="st11" d="M158,522.9L26,540h169L158,522.9z"/>
	<path class="st1" d="M941,357.6l-70-117.2l-57,96.3L941,357.6z"/>
	<path class="st2" d="M854,212.3l18-28l-86-8.9L854,212.3z"/>
	<path class="st6" d="M799,494.9l9,45.1l32-107.3L799,494.9z"/>
	<path class="st10" d="M740,540h68l-9-45.1L740,540z"/>
	<path class="st11" d="M871,240.4l1-56.1l-18,28L871,240.4z"/>
	<path class="st10" d="M0,395.7V540h26L0,395.7z"/>
	<path class="st8" d="M91,0H0v140.1L91,0z"/>
	<path class="st2" d="M840,432.7l101-75.1l-127-20.9L840,432.7z"/>
	<path class="st6" d="M871,240.4l89,19.2l-88-75.3L871,240.4z"/>
	<path class="st9" d="M960,475.9l-19-118.3l-101,75.1L960,475.9z"/>
	<path class="st9" d="M960,305.7v-16.3l-89-49L960,305.7z"/>
	<path class="st2" d="M872,184.3l88-103l-164-8.2L872,184.3z"/>
	<path class="st7" d="M941,357.6l19-51.9l-89-65.3L941,357.6z"/>
	<path class="st4" d="M960,289.4v-29.8l-89-19.2L960,289.4z"/>
	<path class="st5" d="M808,540l152-64.1l-120-43.2L808,540z"/>
	<path class="st1" d="M941,357.6l19,118.3V305.7L941,357.6z"/>
	<path class="st11" d="M960,259.6V81.3l-88,103L960,259.6z"/>
	<path class="st11" d="M796,73.1L936,0H723L796,73.1z"/>
	<path class="st1" d="M960,81.3v-6.2l-164-2L960,81.3z"/>
	<path class="st3" d="M960,75.1l-13-49l-151,47L960,75.1z"/>
	<path class="st7" d="M947,26.1L936,0L796,73.1L947,26.1z"/>
	<path class="st8" d="M808,540h152v-64.1L808,540z"/>
	<path class="st1" d="M960,75.1V0l-13,26.1L960,75.1z"/>
	<path class="st11" d="M947,26.1L960,0h-24L947,26.1z"/>
</g>
</svg>
