<svg id="visual" viewBox="0 0 900 600" width="900" height="600" xmlns="http://www.w3.org/2000/svg" xmlns:xlink="http://www.w3.org/1999/xlink" version="1.1"><rect width="900" height="600" fill="#042144"></rect><g><g transform="translate(280 331)"><path d="M0 -42.9L37.2 -21.5L37.2 21.5L0 42.9L-37.2 21.5L-37.2 -21.5Z" fill="none" stroke="#00edef" stroke-width="2"></path></g><g transform="translate(850 40)"><path d="M0 -42L36.4 -21L36.4 21L0 42L-36.4 21L-36.4 -21Z" fill="none" stroke="#00edef" stroke-width="2"></path></g><g transform="translate(144 191)"><path d="M0 -42L36.4 -21L36.4 21L0 42L-36.4 21L-36.4 -21Z" fill="none" stroke="#00edef" stroke-width="2"></path></g><g transform="translate(177 69)"><path d="M0 -42L36.4 -21L36.4 21L0 42L-36.4 21L-36.4 -21Z" fill="none" stroke="#00edef" stroke-width="2"></path></g><g transform="translate(813 459)"><path d="M0 -42L36.4 -21L36.4 21L0 42L-36.4 21L-36.4 -21Z" fill="none" stroke="#00edef" stroke-width="2"></path></g><g transform="translate(603 463)"><path d="M0 -42L36.4 -21L36.4 21L0 42L-36.4 21L-36.4 -21Z" fill="none" stroke="#00edef" stroke-width="2"></path></g><g transform="translate(438 284)"><path d="M0 -42L36.4 -21L36.4 21L0 42L-36.4 21L-36.4 -21Z" fill="none" stroke="#00edef" stroke-width="2"></path></g><g transform="translate(367 569)"><path d="M0 -42L36.4 -21L36.4 21L0 42L-36.4 21L-36.4 -21Z" fill="none" stroke="#00edef" stroke-width="2"></path></g><g transform="translate(128 361)"><path d="M0 -42L36.4 -21L36.4 21L0 42L-36.4 21L-36.4 -21Z" fill="none" stroke="#00edef" stroke-width="2"></path></g><g transform="translate(802 204)"><path d="M0 -42L36.4 -21L36.4 21L0 42L-36.4 21L-36.4 -21Z" fill="none" stroke="#00edef" stroke-width="2"></path></g><g transform="translate(439 458)"><path d="M0 -42L36.4 -21L36.4 21L0 42L-36.4 21L-36.4 -21Z" fill="none" stroke="#00edef" stroke-width="2"></path></g><g transform="translate(12 128)"><path d="M0 -42L36.4 -21L36.4 21L0 42L-36.4 21L-36.4 -21Z" fill="none" stroke="#00edef" stroke-width="2"></path></g><g transform="translate(32 479)"><path d="M0 -42L36.4 -21L36.4 21L0 42L-36.4 21L-36.4 -21Z" fill="none" stroke="#00edef" stroke-width="2"></path></g><g transform="translate(478 169)"><path d="M0 -42L36.4 -21L36.4 21L0 42L-36.4 21L-36.4 -21Z" fill="none" stroke="#00edef" stroke-width="2"></path></g><g transform="translate(644 309)"><path d="M0 -42L36.4 -21L36.4 21L0 42L-36.4 21L-36.4 -21Z" fill="none" stroke="#00edef" stroke-width="2"></path></g><g transform="translate(455 63)"><path d="M0 -42L36.4 -21L36.4 21L0 42L-36.4 21L-36.4 -21Z" fill="none" stroke="#00edef" stroke-width="2"></path></g><g transform="translate(895 582)"><path d="M0 -42L36.4 -21L36.4 21L0 42L-36.4 21L-36.4 -21Z" fill="none" stroke="#00edef" stroke-width="2"></path></g><g transform="translate(568 574)"><path d="M0 -42L36.4 -21L36.4 21L0 42L-36.4 21L-36.4 -21Z" fill="none" stroke="#00edef" stroke-width="2"></path></g><g transform="translate(720 461)"><path d="M0 -42L36.4 -21L36.4 21L0 42L-36.4 21L-36.4 -21Z" fill="none" stroke="#00edef" stroke-width="2"></path></g><g transform="translate(540 81)"><path d="M0 -42L36.4 -21L36.4 21L0 42L-36.4 21L-36.4 -21Z" fill="none" stroke="#00edef" stroke-width="2"></path></g><g transform="translate(230 452)"><path d="M0 -42L36.4 -21L36.4 21L0 42L-36.4 21L-36.4 -21Z" fill="none" stroke="#00edef" stroke-width="2"></path></g><g transform="translate(894 230)"><path d="M0 -42L36.4 -21L36.4 21L0 42L-36.4 21L-36.4 -21Z" fill="none" stroke="#00edef" stroke-width="2"></path></g><g transform="translate(894 381)"><path d="M0 -42L36.4 -21L36.4 21L0 42L-36.4 21L-36.4 -21Z" fill="none" stroke="#00edef" stroke-width="2"></path></g><g transform="translate(148 593)"><path d="M0 -42L36.4 -21L36.4 21L0 42L-36.4 21L-36.4 -21Z" fill="none" stroke="#00edef" stroke-width="2"></path></g><g transform="translate(366 195)"><path d="M0 -42L36.4 -21L36.4 21L0 42L-36.4 21L-36.4 -21Z" fill="none" stroke="#00edef" stroke-width="2"></path></g><g transform="translate(559 217)"><path d="M0 -42L36.4 -21L36.4 21L0 42L-36.4 21L-36.4 -21Z" fill="none" stroke="#00edef" stroke-width="2"></path></g><g transform="translate(260 138)"><path d="M0 -42L36.4 -21L36.4 21L0 42L-36.4 21L-36.4 -21Z" fill="none" stroke="#00edef" stroke-width="2"></path></g><g transform="translate(705 555)"><path d="M0 -42L36.4 -21L36.4 21L0 42L-36.4 21L-36.4 -21Z" fill="none" stroke="#00edef" stroke-width="2"></path></g><g transform="translate(706 200)"><path d="M0 -42L36.4 -21L36.4 21L0 42L-36.4 21L-36.4 -21Z" fill="none" stroke="#00edef" stroke-width="2"></path></g><g transform="translate(765 11)"><path d="M0 -42L36.4 -21L36.4 21L0 42L-36.4 21L-36.4 -21Z" fill="none" stroke="#00edef" stroke-width="2"></path></g><g transform="translate(680 107)"><path d="M0 -42L36.4 -21L36.4 21L0 42L-36.4 21L-36.4 -21Z" fill="none" stroke="#00edef" stroke-width="2"></path></g><g transform="translate(271 16)"><path d="M0 -42L36.4 -21L36.4 21L0 42L-36.4 21L-36.4 -21Z" fill="none" stroke="#00edef" stroke-width="2"></path></g><g transform="translate(874 130)"><path d="M0 -42L36.4 -21L36.4 21L0 42L-36.4 21L-36.4 -21Z" fill="none" stroke="#00edef" stroke-width="2"></path></g><g transform="translate(370 377)"><path d="M0 -42L36.4 -21L36.4 21L0 42L-36.4 21L-36.4 -21Z" fill="none" stroke="#00edef" stroke-width="2"></path></g><g transform="translate(132 471)"><path d="M0 -42L36.4 -21L36.4 21L0 42L-36.4 21L-36.4 -21Z" fill="none" stroke="#00edef" stroke-width="2"></path></g><g transform="translate(529 333)"><path d="M0 -42L36.4 -21L36.4 21L0 42L-36.4 21L-36.4 -21Z" fill="none" stroke="#00edef" stroke-width="2"></path></g><g transform="translate(315 486)"><path d="M0 -42L36.4 -21L36.4 21L0 42L-36.4 21L-36.4 -21Z" fill="none" stroke="#00edef" stroke-width="2"></path></g><g transform="translate(19 243)"><path d="M0 -42L36.4 -21L36.4 21L0 42L-36.4 21L-36.4 -21Z" fill="none" stroke="#00edef" stroke-width="2"></path></g><g transform="translate(769 320)"><path d="M0 -42L36.4 -21L36.4 21L0 42L-36.4 21L-36.4 -21Z" fill="none" stroke="#00edef" stroke-width="2"></path></g><g transform="translate(586 5)"><path d="M0 -42L36.4 -21L36.4 21L0 42L-36.4 21L-36.4 -21Z" fill="none" stroke="#00edef" stroke-width="2"></path></g><g transform="translate(10 386)"><path d="M0 -42L36.4 -21L36.4 21L0 42L-36.4 21L-36.4 -21Z" fill="none" stroke="#00edef" stroke-width="2"></path></g><g transform="translate(83 20)"><path d="M0 -42L36.4 -21L36.4 21L0 42L-36.4 21L-36.4 -21Z" fill="none" stroke="#00edef" stroke-width="2"></path></g><g transform="translate(799 599)"><path d="M0 -42L36.4 -21L36.4 21L0 42L-36.4 21L-36.4 -21Z" fill="none" stroke="#00edef" stroke-width="2"></path></g><g transform="translate(478 585)"><path d="M0 -42L36.4 -21L36.4 21L0 42L-36.4 21L-36.4 -21Z" fill="none" stroke="#00edef" stroke-width="2"></path></g><g transform="translate(364 75)"><path d="M0 -42L36.4 -21L36.4 21L0 42L-36.4 21L-36.4 -21Z" fill="none" stroke="#00edef" stroke-width="2"></path></g><g transform="translate(243 555)"><path d="M0 -42L36.4 -21L36.4 21L0 42L-36.4 21L-36.4 -21Z" fill="none" stroke="#00edef" stroke-width="2"></path></g><g transform="translate(209 260)"><path d="M0 -42L36.4 -21L36.4 21L0 42L-36.4 21L-36.4 -21Z" fill="none" stroke="#00edef" stroke-width="2"></path></g><g transform="translate(24 597)"><path d="M0 -42L36.4 -21L36.4 21L0 42L-36.4 21L-36.4 -21Z" fill="none" stroke="#00edef" stroke-width="2"></path></g><g transform="translate(894 489)"><path d="M0 -42L36.4 -21L36.4 21L0 42L-36.4 21L-36.4 -21Z" fill="none" stroke="#00edef" stroke-width="2"></path></g><g transform="translate(854 306)"><path d="M0 -42L36.4 -21L36.4 21L0 42L-36.4 21L-36.4 -21Z" fill="none" stroke="#00edef" stroke-width="2"></path></g><g transform="translate(780 117)"><path d="M0 -42L36.4 -21L36.4 21L0 42L-36.4 21L-36.4 -21Z" fill="none" stroke="#00edef" stroke-width="2"></path></g><g transform="translate(99 275)"><path d="M0 -42L36.4 -21L36.4 21L0 42L-36.4 21L-36.4 -21Z" fill="none" stroke="#00edef" stroke-width="2"></path></g><g transform="translate(96 111)"><path d="M0 -42L36.4 -21L36.4 21L0 42L-36.4 21L-36.4 -21Z" fill="none" stroke="#00edef" stroke-width="2"></path></g><g transform="translate(525 421)"><path d="M0 -42L36.4 -21L36.4 21L0 42L-36.4 21L-36.4 -21Z" fill="none" stroke="#00edef" stroke-width="2"></path></g><g transform="translate(697 377)"><path d="M0 -42L36.4 -21L36.4 21L0 42L-36.4 21L-36.4 -21Z" fill="none" stroke="#00edef" stroke-width="2"></path></g></g></svg>